<svg width="152" height="152" viewBox="0 0 152 152" fill="none" xmlns="http://www.w3.org/2000/svg">
<path d="M143.065 3.06666C105.275 13.0667 87.6393 -14.9876 1.14278 16.6794C22.1375 65.0145 -3.89518 103.349 10.3814 150.851C92.6791 127.517 96.0383 144.738 150.624 147.238C126.949 99.968 166.739 50.3369 143.065 3.06666Z" fill="url(#paint0_radial)"/>
<path d="M143.065 3.06666C105.275 13.0667 87.6393 -14.9876 1.14278 16.6794C22.1375 65.0145 -3.89518 103.349 10.3814 150.851C92.6791 127.517 96.0383 144.738 150.624 147.238C126.949 99.968 166.739 50.3369 143.065 3.06666Z" fill="url(#paint1_angular)"/>
<path d="M143.065 3.06666C105.275 13.0667 87.6393 -14.9876 1.14278 16.6794C22.1375 65.0145 -3.89518 103.349 10.3814 150.851C92.6791 127.517 96.0383 144.738 150.624 147.238C126.949 99.968 166.739 50.3369 143.065 3.06666Z" stroke="#009E10" stroke-opacity="0.39"/>
<path d="M127.548 55.1158C139.062 83.5439 125.351 115.909 96.9266 127.405C68.5017 138.901 36.1248 125.177 24.6112 96.7485C13.0976 68.3204 26.808 35.9557 55.2328 24.4594C83.6577 12.963 116.035 26.6877 127.548 55.1158Z" fill="#FFAD33" fill-opacity="0.85"/>
<path d="M127.548 55.1158C139.062 83.5439 125.351 115.909 96.9266 127.405C68.5017 138.901 36.1248 125.177 24.6112 96.7485C13.0976 68.3204 26.808 35.9557 55.2328 24.4594C83.6577 12.963 116.035 26.6877 127.548 55.1158Z" fill="url(#paint2_linear)"/>
<path d="M127.548 55.1158C139.062 83.5439 125.351 115.909 96.9266 127.405C68.5017 138.901 36.1248 125.177 24.6112 96.7485C13.0976 68.3204 26.808 35.9557 55.2328 24.4594C83.6577 12.963 116.035 26.6877 127.548 55.1158Z" stroke="url(#paint3_linear)" stroke-width="4"/>
<path d="M52.902 104.462C90.868 113.253 78.4306 100.275 113.422 78.1332" stroke="#FF833E" stroke-opacity="0.42"/>
<path d="M66.9051 66.8444C71.6649 78.6094 59.3067 90.9154 75.7716 84.2492" stroke="#FF833E" stroke-opacity="0.6"/>
<path d="M32.4259 85.3683C36.8881 62.5671 62.7046 76.7604 61.5662 67.1804" stroke="#762A00" stroke-width="0.5"/>
<path d="M73.4947 65.0892C69.5375 57.5634 87.2136 49.9438 101.72 53.6614" stroke="#7E2D00" stroke-width="0.5"/>
<path d="M67.9758 43.7569C67.4366 42.4243 66.5118 41.4923 65.2012 40.9609C63.9051 40.4237 61.9997 40.2343 59.4849 40.3928C56.0192 40.7003 53.2719 40.3882 51.2431 39.4564C49.2229 38.5044 47.7411 36.8623 46.7977 34.5303C45.8366 32.1549 45.7364 29.9282 46.4969 27.8502C47.272 25.7664 48.8102 24.0901 51.1117 22.8211L49.1866 18.063L52.4236 16.7524L54.3574 21.5323C56.9253 20.8803 59.2285 21.1362 61.2669 22.3C63.3198 23.458 64.9469 25.5217 66.1482 28.491L62.1509 30.1094C61.3246 28.0671 60.1831 26.6413 58.7264 25.8319C57.2696 25.0226 55.7157 24.9522 54.0647 25.6206C52.3412 26.3184 51.2049 27.3011 50.6558 28.5685C50.1009 29.8215 50.1457 31.2446 50.7903 32.8379C51.388 34.3153 52.3436 35.3023 53.6569 35.7989C54.9789 36.275 56.8871 36.4296 59.3815 36.2625C61.8845 36.0751 63.9274 36.1667 65.51 36.5373C67.1013 36.8876 68.4181 37.5177 69.4603 38.4274C70.5171 39.3312 71.356 40.5508 71.9772 42.0862C72.9676 44.5341 73.0259 46.803 72.1522 48.893C71.293 50.9772 69.5939 52.6934 67.0549 54.0417L68.7338 58.1915L65.5186 59.4932L63.8397 55.3434C61.0462 56.1879 58.5449 56.088 56.3358 55.0439C54.1354 53.9794 52.455 52.0132 51.2947 49.1452L55.3137 47.518C56.1282 49.5314 57.2839 50.8672 58.7807 51.5255C60.2774 52.1837 61.9962 52.12 63.9369 51.3342C65.8342 50.5661 67.1413 49.5058 67.8583 48.1535C68.5754 46.8012 68.6145 45.3357 67.9758 43.7569Z" fill="url(#paint4_angular)"/>
<path d="M55.3081 116.765C55.3694 115.688 55.0409 114.76 54.3224 113.979C53.6157 113.2 52.3843 112.46 50.6282 111.762C48.1795 110.859 46.4166 109.766 45.3394 108.484C44.2745 107.191 43.7958 105.603 43.9032 103.719C44.0126 101.8 44.658 100.258 45.8395 99.0932C47.0327 97.9288 48.6129 97.2853 50.5801 97.1628L50.7992 93.3194L53.4141 93.4686L53.194 97.3295C55.1442 97.7108 56.624 98.6227 57.6334 100.065C58.6544 101.509 59.0966 103.43 58.9599 105.828L55.7308 105.644C55.8248 103.994 55.5076 102.661 54.779 101.646C54.0505 100.63 53.0194 100.084 51.6856 100.008C50.2933 99.9283 49.208 100.23 48.4296 100.914C47.6518 101.585 47.2262 102.565 47.1528 103.852C47.0848 105.045 47.4166 106.02 48.148 106.778C48.8919 107.525 50.1363 108.241 51.8814 108.928C53.6387 109.603 54.9947 110.32 55.9491 111.079C56.9159 111.827 57.607 112.676 58.0223 113.627C58.4493 114.579 58.6274 115.675 58.5567 116.915C58.444 118.892 57.7566 120.449 56.4946 121.586C55.2442 122.724 53.5422 123.343 51.3884 123.443L51.1973 126.795L48.6 126.647L48.7911 123.295C46.6263 122.972 44.9621 122.102 43.7987 120.686C42.6476 119.259 42.138 117.387 42.2701 115.07L45.5168 115.255C45.4241 116.882 45.7797 118.158 46.5838 119.084C47.3879 120.01 48.5738 120.518 50.1415 120.608C51.6742 120.695 52.9003 120.395 53.8198 119.708C54.7393 119.021 55.2354 118.04 55.3081 116.765Z" fill="url(#paint5_angular)"/>
<path d="M126.946 82.8781C126.165 82.1346 125.245 81.7842 124.185 81.8268C123.134 81.861 121.774 82.3214 120.105 83.208C117.832 84.4909 115.859 85.1281 114.185 85.1195C112.51 85.0944 110.99 84.4312 109.623 83.1301C108.232 81.8046 107.474 80.3144 107.35 78.6594C107.235 76.9958 107.767 75.3744 108.946 73.7951L106.159 71.1402L107.964 69.2429L110.765 71.9099C112.317 70.6696 113.97 70.1315 115.722 70.2957C117.483 70.4513 119.233 71.3575 120.973 73.0143L118.743 75.3573C117.547 74.2178 116.325 73.597 115.08 73.495C113.834 73.393 112.751 73.8259 111.83 74.7936C110.869 75.8038 110.397 76.8269 110.414 77.8628C110.422 78.8906 110.894 79.849 111.827 80.7379C112.693 81.5623 113.651 81.9408 114.702 81.8735C115.752 81.7896 117.103 81.3046 118.756 80.4183C120.408 79.5155 121.831 78.9457 123.027 78.7091C124.223 78.4558 125.317 78.4786 126.311 78.7775C127.312 79.0679 128.263 79.6415 129.162 80.4981C130.597 81.8639 131.339 83.396 131.389 85.0943C131.447 86.7841 130.817 88.4826 129.5 90.1897L131.932 92.5051L130.138 94.3897L127.707 92.0742C126.06 93.5158 124.32 94.2219 122.488 94.1923C120.655 94.1462 118.899 93.323 117.219 91.7228L119.461 89.3671C120.64 90.4905 121.843 91.0454 123.069 91.0318C124.295 91.0182 125.45 90.4426 126.532 89.3051C127.591 88.193 128.155 87.0641 128.227 85.9182C128.298 84.7724 127.871 83.759 126.946 82.8781Z" fill="url(#paint6_angular)"/>
<path d="M17.0982 42.8662C16.9635 42.5331 16.7322 42.3001 16.4046 42.1673C16.0806 42.033 15.6042 41.9856 14.9755 42.0252C14.1091 42.1021 13.4223 42.0241 12.9151 41.7911C12.41 41.5531 12.0396 41.1426 11.8037 40.5596C11.5634 39.9657 11.5384 39.4091 11.7285 38.8896C11.9223 38.3686 12.3069 37.9495 12.8822 37.6323L12.401 36.4428L13.2102 36.1151L13.6936 37.3101C14.3356 37.1471 14.9114 37.2111 15.421 37.502C15.9342 37.7915 16.341 38.3074 16.6413 39.0498L15.642 39.4544C15.4355 38.9438 15.1501 38.5873 14.7859 38.385C14.4217 38.1827 14.0332 38.1651 13.6205 38.3322C13.1896 38.5066 12.9055 38.7523 12.7682 39.0692C12.6295 39.3824 12.6407 39.7382 12.8019 40.1365C12.9513 40.5059 13.1902 40.7526 13.5185 40.8767C13.849 40.9958 14.3261 41.0344 14.9497 40.9927C15.5754 40.9458 16.0861 40.9687 16.4818 41.0614C16.8796 41.1489 17.2088 41.3064 17.4694 41.5339C17.7336 41.7598 17.9433 42.0647 18.0986 42.4486C18.3462 43.0605 18.3608 43.6278 18.1424 44.1503C17.9276 44.6713 17.5028 45.1004 16.868 45.4375L17.2877 46.4749L16.4839 46.8003L16.0642 45.7629C15.3658 45.974 14.7405 45.949 14.1883 45.688C13.6381 45.4219 13.218 44.9303 12.928 44.2133L13.9327 43.8065C14.1364 44.3099 14.4253 44.6438 14.7995 44.8084C15.1736 44.973 15.6033 44.957 16.0885 44.7606C16.5628 44.5686 16.8896 44.3035 17.0689 43.9654C17.2481 43.6273 17.2579 43.2609 17.0982 42.8662Z" fill="url(#paint7_angular)"/>
<path d="M19.0573 27.793C18.7877 27.1267 18.3253 26.6607 17.67 26.395C17.022 26.1264 16.0692 26.0317 14.8119 26.1109C13.079 26.2647 11.7053 26.1086 10.691 25.6428C9.68087 25.1667 8.93997 24.3457 8.46823 23.1797C7.9877 21.992 7.93758 20.8786 8.31787 19.8397C8.70539 18.7978 9.47452 17.9596 10.6252 17.3251L9.66273 14.946L11.2812 14.2908L12.2481 16.6807C13.5321 16.3547 14.6837 16.4827 15.7029 17.0646C16.7293 17.6436 17.5429 18.6754 18.1435 20.1601L16.1449 20.9693C15.7317 19.9481 15.161 19.2352 14.4326 18.8305C13.7042 18.4259 12.9273 18.3906 12.1017 18.7249C11.24 19.0738 10.6719 19.5651 10.3973 20.1988C10.1198 20.8253 10.1422 21.5369 10.4646 22.3335C10.7634 23.0722 11.2412 23.5657 11.8979 23.814C12.5588 24.0521 13.5129 24.1294 14.7601 24.0458C16.0117 23.9521 17.0331 23.9979 17.8244 24.1832C18.6201 24.3584 19.2784 24.6734 19.7996 25.1282C20.3279 25.5802 20.7474 26.19 21.058 26.9577C21.5532 28.1816 21.5824 29.3161 21.1455 30.3611C20.7159 31.4031 19.8664 32.2613 18.5968 32.9354L19.4363 35.0103L17.8287 35.6612L16.9892 33.5863C15.5925 34.0085 14.3419 33.9586 13.2373 33.4365C12.1371 32.9043 11.2969 31.9211 10.7167 30.4872L12.7262 29.6736C13.1335 30.6802 13.7114 31.3482 14.4597 31.6773C15.2081 32.0064 16.0675 31.9746 17.0378 31.5817C17.9865 31.1976 18.6401 30.6675 18.9986 29.9913C19.3571 29.3152 19.3767 28.5824 19.0573 27.793Z" fill="url(#paint8_angular)"/>
<path d="M31.2467 23.4931C31.0445 22.9934 30.6977 22.6439 30.2062 22.4446C29.7202 22.2432 29.0056 22.1722 28.0626 22.2316C26.7629 22.3469 25.7327 22.2299 24.9719 21.8805C24.2144 21.5234 23.6587 20.9077 23.3049 20.0332C22.9445 19.1424 22.9069 18.3074 23.1921 17.5281C23.4827 16.7467 24.0596 16.1181 24.9226 15.6422L24.2007 13.8579L25.4146 13.3664L26.1398 15.1589C27.1028 14.9144 27.9664 15.0104 28.7308 15.4468C29.5007 15.881 30.1108 16.6549 30.5613 17.7684L29.0623 18.3753C28.7525 17.6094 28.3244 17.0748 27.7781 16.7713C27.2319 16.4678 26.6492 16.4414 26.03 16.692C25.3837 16.9537 24.9576 17.3222 24.7517 17.7975C24.5436 18.2674 24.5604 18.801 24.8021 19.3985C25.0263 19.9525 25.3846 20.3227 25.8771 20.5089C26.3728 20.6874 27.0884 20.7454 28.0238 20.6827C28.9624 20.6125 29.7285 20.6468 30.322 20.7858C30.9187 20.9172 31.4125 21.1534 31.8034 21.4946C32.1997 21.8335 32.5143 22.2909 32.7472 22.8666C33.1186 23.7846 33.1405 24.6354 32.8128 25.4192C32.4906 26.2007 31.8535 26.8443 30.9013 27.3499L31.5309 28.9061L30.3252 29.3943L29.6956 27.8381C28.6481 28.1547 27.7101 28.1173 26.8817 27.7257C26.0565 27.3266 25.4264 26.5892 24.9912 25.5138L26.4984 24.9036C26.8038 25.6586 27.2372 26.1595 27.7985 26.4063C28.3598 26.6532 29.0043 26.6293 29.7321 26.3346C30.4436 26.0466 30.9337 25.649 31.2026 25.1419C31.4715 24.6347 31.4862 24.0852 31.2467 23.4931Z" fill="url(#paint9_angular)"/>
<path d="M17.0982 62.5484C16.9635 62.2153 16.7322 61.9823 16.4046 61.8494C16.0806 61.7151 15.6042 61.6678 14.9755 61.7074C14.1091 61.7843 13.4223 61.7063 12.9151 61.4733C12.41 61.2353 12.0396 60.8248 11.8037 60.2418C11.5634 59.6479 11.5384 59.0913 11.7285 58.5718C11.9223 58.0508 12.3069 57.6317 12.8822 57.3145L12.401 56.125L13.2102 55.7973L13.6936 56.9923C14.3356 56.8293 14.9114 56.8933 15.421 57.1842C15.9342 57.4737 16.341 57.9896 16.6413 58.732L15.642 59.1366C15.4355 58.626 15.1501 58.2695 14.7859 58.0672C14.4217 57.8649 14.0332 57.8473 13.6205 58.0144C13.1896 58.1888 12.9055 58.4345 12.7682 58.7513C12.6295 59.0646 12.6407 59.4204 12.8019 59.8187C12.9513 60.188 13.1902 60.4348 13.5185 60.5589C13.849 60.678 14.3261 60.7166 14.9497 60.6748C15.5754 60.628 16.0861 60.6509 16.4818 60.7435C16.8796 60.8311 17.2088 60.9886 17.4694 61.2161C17.7336 61.442 17.9433 61.7469 18.0986 62.1308C18.3462 62.7427 18.3608 63.31 18.1424 63.8325C17.9276 64.3535 17.5028 64.7826 16.868 65.1196L17.2877 66.1571L16.4839 66.4825L16.0642 65.4451C15.3658 65.6562 14.7405 65.6312 14.1883 65.3702C13.6381 65.1041 13.218 64.6125 12.928 63.8955L13.9327 63.4887C14.1364 63.9921 14.4253 64.326 14.7995 64.4906C15.1736 64.6551 15.6033 64.6392 16.0885 64.4428C16.5628 64.2507 16.8896 63.9857 17.0689 63.6476C17.2481 63.3095 17.2579 62.9431 17.0982 62.5484Z" fill="url(#paint10_angular)"/>
<path d="M16.0997 85.524C15.9649 85.1909 15.7337 84.9579 15.406 84.825C15.082 84.6907 14.6056 84.6434 13.977 84.683C13.1105 84.7599 12.4237 84.6818 11.9165 84.4489C11.4115 84.2109 11.041 83.8004 10.8051 83.2174C10.5649 82.6235 10.5398 82.0668 10.73 81.5474C10.9237 81.0264 11.3083 80.6073 11.8836 80.2901L11.4024 79.1005L12.2116 78.7729L12.6951 79.9679C13.3371 79.8049 13.9128 79.8688 14.4225 80.1598C14.9357 80.4493 15.3424 80.9652 15.6428 81.7075L14.6435 82.1121C14.4369 81.6016 14.1515 81.2451 13.7873 81.0428C13.4231 80.8404 13.0347 80.8228 12.6219 80.99C12.191 81.1644 11.907 81.4101 11.7697 81.7269C11.6309 82.0402 11.6421 82.396 11.8033 82.7943C11.9527 83.1636 12.1916 83.4104 12.52 83.5345C12.8504 83.6536 13.3275 83.6922 13.9511 83.6504C14.5769 83.6036 15.0876 83.6265 15.4832 83.7191C15.881 83.8067 16.2102 83.9642 16.4708 84.1916C16.735 84.4176 16.9447 84.7225 17.1 85.1063C17.3476 85.7183 17.3622 86.2855 17.1438 86.808C16.929 87.3291 16.5042 87.7581 15.8694 88.0952L16.2892 89.1327L15.4854 89.4581L15.0656 88.4207C14.3673 88.6318 13.742 88.6068 13.1897 88.3458C12.6396 88.0796 12.2195 87.5881 11.9294 86.8711L12.9341 86.4643C13.1378 86.9676 13.4267 87.3016 13.8009 87.4662C14.1751 87.6307 14.6048 87.6148 15.0899 87.4184C15.5643 87.2263 15.8911 86.9613 16.0703 86.6232C16.2496 86.2851 16.2594 85.9187 16.0997 85.524Z" fill="url(#paint11_angular)"/>
<path d="M15.1011 100.508C14.9663 100.175 14.7351 99.9419 14.4075 99.8091C14.0834 99.6748 13.6071 99.6274 12.9784 99.6671C12.1119 99.7439 11.4251 99.6659 10.9179 99.433C10.4129 99.195 10.0424 98.7845 9.80657 98.2015C9.56631 97.6076 9.54125 97.0509 9.73139 96.5314C9.92515 96.0105 10.3097 95.5914 10.8851 95.2741L10.4038 94.0846L11.2131 93.757L11.6965 94.9519C12.3385 94.7889 12.9143 94.8529 13.4239 95.1439C13.9371 95.4334 14.3439 95.9493 14.6442 96.6916L13.6449 97.0962C13.4383 96.5856 13.1529 96.2292 12.7888 96.0269C12.4246 95.8245 12.0361 95.8069 11.6233 95.974C11.1925 96.1485 10.9084 96.3941 10.7711 96.711C10.6324 97.0242 10.6436 97.38 10.8047 97.7784C10.9542 98.1477 11.193 98.3945 11.5214 98.5186C11.8519 98.6376 12.3289 98.6763 12.9525 98.6345C13.5783 98.5876 14.089 98.6105 14.4847 98.7032C14.8825 98.7908 15.2117 98.9483 15.4722 99.1757C15.7364 99.4017 15.9462 99.7066 16.1015 100.09C16.349 100.702 16.3636 101.27 16.1452 101.792C15.9304 102.313 15.5056 102.742 14.8709 103.079L15.2906 104.117L14.4868 104.442L14.0671 103.405C13.3687 103.616 12.7434 103.591 12.1911 103.33C11.641 103.064 11.2209 102.572 10.9308 101.855L11.9356 101.448C12.1392 101.952 12.4281 102.286 12.8023 102.45C13.1765 102.615 13.6062 102.599 14.0914 102.402C14.5657 102.21 14.8925 101.945 15.0717 101.607C15.251 101.269 15.2608 100.903 15.1011 100.508Z" fill="url(#paint12_angular)"/>
<path d="M43.061 124.483C42.9262 124.149 42.695 123.916 42.3674 123.784C42.0433 123.649 41.567 123.602 40.9383 123.642C40.0718 123.718 39.385 123.64 38.8778 123.408C38.3728 123.169 38.0023 122.759 37.7665 122.176C37.5262 121.582 37.5011 121.025 37.6913 120.506C37.885 119.985 38.2696 119.566 38.845 119.249L38.3637 118.059L39.1729 117.732L39.6564 118.926C40.2984 118.763 40.8742 118.827 41.3838 119.118C41.897 119.408 42.3038 119.924 42.6041 120.666L41.6048 121.071C41.3982 120.56 41.1128 120.204 40.7487 120.001C40.3845 119.799 39.996 119.781 39.5832 119.949C39.1524 120.123 38.8683 120.369 38.731 120.686C38.5923 120.999 38.6035 121.355 38.7646 121.753C38.9141 122.122 39.1529 122.369 39.4813 122.493C39.8118 122.612 40.2888 122.651 40.9124 122.609C41.5382 122.562 42.0489 122.585 42.4446 122.678C42.8424 122.765 43.1716 122.923 43.4321 123.15C43.6963 123.376 43.9061 123.681 44.0614 124.065C44.3089 124.677 44.3235 125.244 44.1051 125.767C43.8903 126.288 43.4655 126.717 42.8308 127.054L43.2505 128.091L42.4467 128.417L42.027 127.379C41.3286 127.59 40.7033 127.565 40.151 127.304C39.6009 127.038 39.1808 126.547 38.8907 125.83L39.8955 125.423C40.0991 125.926 40.388 126.26 40.7622 126.425C41.1364 126.589 41.5661 126.573 42.0513 126.377C42.5256 126.185 42.8524 125.92 43.0316 125.582C43.2109 125.244 43.2207 124.877 43.061 124.483Z" fill="url(#paint13_angular)"/>
<path d="M29.7607 123.493C29.7371 122.415 29.3365 121.515 28.5589 120.794C27.7929 120.072 26.5071 119.432 24.7015 118.874C22.1894 118.167 20.346 117.216 19.1712 116.023C18.0079 114.818 17.4056 113.272 17.3644 111.386C17.3224 109.464 17.8445 107.876 18.9306 106.622C20.0285 105.367 21.5531 104.601 23.5046 104.324L23.4205 100.475L26.039 100.418L26.1235 104.284C28.0976 104.511 29.6446 105.303 30.7644 106.662C31.8959 108.02 32.4879 109.9 32.5404 112.302L29.3068 112.373C29.2707 110.721 28.8495 109.417 28.0433 108.462C27.2371 107.507 26.1662 107.044 24.8306 107.073C23.4364 107.103 22.3781 107.49 21.6559 108.232C20.9334 108.963 20.5863 109.973 20.6144 111.262C20.6405 112.457 21.048 113.403 21.8369 114.101C22.6372 114.787 23.9342 115.403 25.7278 115.95C27.5329 116.485 28.941 117.093 29.9522 117.774C30.9749 118.443 31.7307 119.236 32.2195 120.151C32.7201 121.066 32.9839 122.144 33.0111 123.386C33.0543 125.366 32.4916 126.973 31.323 128.206C30.166 129.438 28.518 130.189 26.3788 130.459L26.4521 133.815L23.8512 133.872L23.7779 130.516C21.5943 130.364 19.8669 129.628 18.5956 128.308C17.3357 126.976 16.6805 125.15 16.6298 122.83L19.881 122.759C19.9165 124.388 20.3716 125.632 21.246 126.492C22.1205 127.352 23.3427 127.765 24.9126 127.73C26.4474 127.697 27.6461 127.301 28.5087 126.544C29.3712 125.787 29.7886 124.77 29.7607 123.493Z" fill="url(#paint14_angular)"/>
<path d="M131.934 37.575C131.799 37.2418 131.568 37.0088 131.24 36.876C130.916 36.7417 130.439 36.6943 129.811 36.7339C128.944 36.8108 128.258 36.7328 127.75 36.4999C127.245 36.2618 126.875 35.8513 126.639 35.2683C126.399 34.6745 126.374 34.1178 126.564 33.5983C126.758 33.0774 127.142 32.6583 127.717 32.341L127.236 31.1515L128.045 30.8238L128.529 32.0188C129.171 31.8558 129.747 31.9198 130.256 32.2108C130.77 32.5003 131.176 33.0162 131.477 33.7585L130.477 34.1631C130.271 33.6525 129.985 33.2961 129.621 33.0937C129.257 32.8914 128.869 32.8738 128.456 33.0409C128.025 33.2154 127.741 33.461 127.604 33.7779C127.465 34.0911 127.476 34.4469 127.637 34.8452C127.787 35.2146 128.025 35.4613 128.354 35.5855C128.684 35.7045 129.161 35.7432 129.785 35.7014C130.411 35.6545 130.921 35.6774 131.317 35.7701C131.715 35.8577 132.044 36.0152 132.305 36.2426C132.569 36.4686 132.779 36.7735 132.934 37.1573C133.181 37.7693 133.196 38.3365 132.978 38.859C132.763 39.38 132.338 39.8091 131.703 40.1462L132.123 41.1836L131.319 41.5091L130.899 40.4716C130.201 40.6827 129.576 40.6578 129.024 40.3967C128.473 40.1306 128.053 39.639 127.763 38.9221L128.768 38.5153C128.972 39.0186 129.261 39.3525 129.635 39.5171C130.009 39.6817 130.439 39.6657 130.924 39.4693C131.398 39.2773 131.725 39.0122 131.904 38.6741C132.083 38.3361 132.093 37.9697 131.934 37.575Z" fill="url(#paint15_angular)"/>
<path d="M139.922 48.5633C139.787 48.2301 139.556 47.9972 139.228 47.8643C138.904 47.73 138.428 47.6827 137.799 47.7223C136.933 47.7991 136.246 47.7211 135.739 47.4882C135.234 47.2502 134.863 46.8397 134.628 46.2567C134.387 45.6628 134.362 45.1061 134.552 44.5866C134.746 44.0657 135.131 43.6466 135.706 43.3294L135.225 42.1398L136.034 41.8122L136.517 43.0071C137.159 42.8442 137.735 42.9081 138.245 43.1991C138.758 43.4886 139.165 44.0045 139.465 44.7468L138.466 45.1514C138.259 44.6408 137.974 44.2844 137.61 44.0821C137.246 43.8797 136.857 43.8621 136.444 44.0292C136.013 44.2037 135.729 44.4493 135.592 44.7662C135.453 45.0795 135.465 45.4352 135.626 45.8336C135.775 46.2029 136.014 46.4497 136.342 46.5738C136.673 46.6928 137.15 46.7315 137.773 46.6897C138.399 46.6429 138.91 46.6658 139.306 46.7584C139.703 46.846 140.033 47.0035 140.293 47.2309C140.557 47.4569 140.767 47.7618 140.922 48.1456C141.17 48.7576 141.185 49.3248 140.966 49.8473C140.751 50.3684 140.327 50.7974 139.692 51.1345L140.112 52.1719L139.308 52.4974L138.888 51.4599C138.19 51.671 137.564 51.6461 137.012 51.385C136.462 51.1189 136.042 50.6274 135.752 49.9104L136.757 49.5036C136.96 50.0069 137.249 50.3409 137.623 50.5054C137.997 50.67 138.427 50.6541 138.912 50.4576C139.387 50.2656 139.713 50.0005 139.893 49.6625C140.072 49.3244 140.082 48.958 139.922 48.5633Z" fill="url(#paint16_angular)"/>
<path d="M13.104 126.777C12.9692 126.444 12.738 126.211 12.4103 126.078C12.0863 125.944 11.6099 125.896 10.9813 125.936C10.1148 126.013 9.42799 125.935 8.9208 125.702C8.41576 125.464 8.0453 125.053 7.80943 124.47C7.56917 123.877 7.54411 123.32 7.73425 122.8C7.92802 122.279 8.31258 121.86 8.88794 121.543L8.40668 120.354L9.21592 120.026L9.69938 121.221C10.3414 121.058 10.9171 121.122 11.4267 121.413C11.94 121.702 12.3467 122.218 12.6471 122.961L11.6478 123.365C11.4412 122.855 11.1558 122.498 10.7916 122.296C10.4274 122.094 10.039 122.076 9.62619 122.243C9.19533 122.417 8.91125 122.663 8.77398 122.98C8.63524 123.293 8.64645 123.649 8.8076 124.047C8.95703 124.417 9.19591 124.663 9.52425 124.788C9.85474 124.907 10.3318 124.945 10.9554 124.903C11.5811 124.857 12.0919 124.88 12.4875 124.972C12.8853 125.06 13.2145 125.217 13.4751 125.445C13.7393 125.671 13.949 125.976 14.1043 126.359C14.3519 126.971 14.3665 127.539 14.1481 128.061C13.9333 128.582 13.5085 129.011 12.8737 129.348L13.2935 130.386L12.4897 130.711L12.0699 129.674C11.3716 129.885 10.7463 129.86 10.194 129.599C9.64386 129.333 9.22376 128.841 8.93369 128.124L9.93845 127.717C10.1421 128.221 10.431 128.555 10.8052 128.719C11.1794 128.884 11.6091 128.868 12.0942 128.671C12.5686 128.479 12.8953 128.214 13.0746 127.876C13.2539 127.538 13.2637 127.172 13.104 126.777Z" fill="url(#paint17_angular)"/>
<path d="M22.0911 139.763C21.9563 139.43 21.7251 139.197 21.3974 139.064C21.0734 138.93 20.5971 138.883 19.9684 138.922C19.1019 138.999 18.4151 138.921 17.9079 138.688C17.4029 138.45 17.0324 138.04 16.7965 137.457C16.5563 136.863 16.5312 136.306 16.7214 135.787C16.9151 135.266 17.2997 134.847 17.8751 134.529L17.3938 133.34L18.203 133.012L18.6865 134.207C19.3285 134.044 19.9043 134.108 20.4139 134.399C20.9271 134.689 21.3339 135.204 21.6342 135.947L20.6349 136.351C20.4283 135.841 20.1429 135.484 19.7787 135.282C19.4145 135.08 19.0261 135.062 18.6133 135.229C18.1824 135.404 17.8984 135.649 17.7611 135.966C17.6223 136.279 17.6336 136.635 17.7947 137.034C17.9441 137.403 18.183 137.65 18.5114 137.774C18.8418 137.893 19.3189 137.931 19.9425 137.89C20.5683 137.843 21.079 137.866 21.4746 137.958C21.8725 138.046 22.2016 138.203 22.4622 138.431C22.7264 138.657 22.9361 138.962 23.0914 139.346C23.339 139.958 23.3536 140.525 23.1352 141.047C22.9204 141.568 22.4956 141.997 21.8609 142.334L22.2806 143.372L21.4768 143.697L21.0571 142.66C20.3587 142.871 19.7334 142.846 19.1811 142.585C18.631 142.319 18.2109 141.827 17.9208 141.11L18.9256 140.704C19.1292 141.207 19.4181 141.541 19.7923 141.705C20.1665 141.87 20.5962 141.854 21.0814 141.658C21.5557 141.466 21.8825 141.201 22.0617 140.862C22.241 140.524 22.2508 140.158 22.0911 139.763Z" fill="url(#paint18_angular)"/>
<path d="M108.966 132.771C108.832 132.438 108.6 132.205 108.273 132.072C107.949 131.937 107.472 131.89 106.844 131.93C105.977 132.007 105.29 131.929 104.783 131.696C104.278 131.458 103.908 131.047 103.672 130.464C103.432 129.87 103.407 129.314 103.597 128.794C103.791 128.273 104.175 127.854 104.75 127.537L104.269 126.347L105.078 126.02L105.562 127.215C106.204 127.052 106.78 127.116 107.289 127.407C107.802 127.696 108.209 128.212 108.51 128.954L107.51 129.359C107.304 128.848 107.018 128.492 106.654 128.289C106.29 128.087 105.901 128.07 105.489 128.237C105.058 128.411 104.774 128.657 104.636 128.974C104.498 129.287 104.509 129.643 104.67 130.041C104.82 130.41 105.058 130.657 105.387 130.781C105.717 130.9 106.194 130.939 106.818 130.897C107.444 130.85 107.954 130.873 108.35 130.966C108.748 131.053 109.077 131.211 109.338 131.438C109.602 131.664 109.812 131.969 109.967 132.353C110.214 132.965 110.229 133.532 110.011 134.055C109.796 134.576 109.371 135.005 108.736 135.342L109.156 136.379L108.352 136.705L107.932 135.667C107.234 135.878 106.609 135.854 106.056 135.592C105.506 135.326 105.086 134.835 104.796 134.118L105.801 133.711C106.005 134.214 106.293 134.548 106.668 134.713C107.042 134.877 107.472 134.861 107.957 134.665C108.431 134.473 108.758 134.208 108.937 133.87C109.116 133.532 109.126 133.165 108.966 132.771Z" fill="url(#paint19_angular)"/>
<path d="M136.926 113.791C136.792 113.458 136.56 113.225 136.233 113.092C135.909 112.958 135.432 112.91 134.804 112.95C133.937 113.027 133.25 112.949 132.743 112.716C132.238 112.478 131.868 112.067 131.632 111.484C131.392 110.89 131.366 110.334 131.557 109.814C131.75 109.293 132.135 108.874 132.71 108.557L132.229 107.367L133.038 107.04L133.522 108.235C134.164 108.072 134.74 108.136 135.249 108.427C135.762 108.716 136.169 109.232 136.469 109.974L135.47 110.379C135.264 109.868 134.978 109.512 134.614 109.31C134.25 109.107 133.861 109.09 133.449 109.257C133.018 109.431 132.734 109.677 132.596 109.994C132.458 110.307 132.469 110.663 132.63 111.061C132.779 111.431 133.018 111.677 133.347 111.801C133.677 111.92 134.154 111.959 134.778 111.917C135.404 111.87 135.914 111.893 136.31 111.986C136.708 112.074 137.037 112.231 137.297 112.459C137.562 112.684 137.771 112.989 137.927 113.373C138.174 113.985 138.189 114.552 137.97 115.075C137.756 115.596 137.331 116.025 136.696 116.362L137.116 117.4L136.312 117.725L135.892 116.688C135.194 116.899 134.569 116.874 134.016 116.613C133.466 116.347 133.046 115.855 132.756 115.138L133.761 114.731C133.964 115.235 134.253 115.568 134.628 115.733C135.002 115.898 135.431 115.882 135.917 115.685C136.391 115.493 136.718 115.228 136.897 114.89C137.076 114.552 137.086 114.186 136.926 113.791Z" fill="url(#paint20_angular)"/>
<path d="M141.76 139.763C141.625 139.43 141.394 139.197 141.066 139.064C140.742 138.93 140.266 138.883 139.637 138.922C138.771 138.999 138.084 138.921 137.577 138.688C137.072 138.45 136.701 138.04 136.465 137.457C136.225 136.863 136.2 136.306 136.39 135.787C136.584 135.266 136.968 134.847 137.544 134.529L137.062 133.34L137.872 133.012L138.355 134.207C138.997 134.044 139.573 134.108 140.083 134.399C140.596 134.689 141.003 135.204 141.303 135.947L140.304 136.351C140.097 135.841 139.812 135.484 139.447 135.282C139.083 135.08 138.695 135.062 138.282 135.229C137.851 135.404 137.567 135.649 137.43 135.966C137.291 136.279 137.302 136.635 137.463 137.034C137.613 137.403 137.852 137.65 138.18 137.774C138.511 137.893 138.988 137.931 139.611 137.89C140.237 137.843 140.748 137.866 141.143 137.958C141.541 138.046 141.87 138.203 142.131 138.431C142.395 138.657 142.605 138.962 142.76 139.346C143.008 139.958 143.022 140.525 142.804 141.047C142.589 141.568 142.164 141.997 141.53 142.334L141.949 143.372L141.145 143.697L140.726 142.66C140.027 142.871 139.402 142.846 138.85 142.585C138.3 142.319 137.88 141.827 137.589 141.11L138.594 140.704C138.798 141.207 139.087 141.541 139.461 141.705C139.835 141.87 140.265 141.854 140.75 141.658C141.224 141.466 141.551 141.201 141.73 140.862C141.91 140.524 141.919 140.158 141.76 139.763Z" fill="url(#paint21_angular)"/>
<path d="M128.743 132.163C128.795 131.446 128.585 130.824 128.114 130.296C127.651 129.769 126.838 129.264 125.674 128.78C124.051 128.154 122.887 127.408 122.182 126.542C121.485 125.67 121.182 124.606 121.272 123.351C121.365 122.074 121.81 121.052 122.61 120.287C123.417 119.523 124.477 119.11 125.789 119.049L125.974 116.489L127.716 116.615L127.53 119.186C128.826 119.46 129.803 120.083 130.462 121.055C131.128 122.027 131.403 123.312 131.288 124.909L129.137 124.754C129.216 123.655 129.018 122.764 128.543 122.079C128.068 121.395 127.386 121.02 126.497 120.956C125.57 120.889 124.844 121.079 124.318 121.527C123.793 121.967 123.499 122.615 123.437 123.473C123.38 124.267 123.591 124.921 124.071 125.434C124.559 125.939 125.382 126.429 126.538 126.904C127.703 127.372 128.599 127.864 129.228 128.379C129.865 128.887 130.317 129.46 130.584 130.099C130.859 130.737 130.967 131.47 130.907 132.296C130.812 133.612 130.338 134.643 129.485 135.389C128.64 136.134 127.5 136.53 126.063 136.575L125.902 138.807L124.172 138.682L124.333 136.45C122.893 136.213 121.793 135.616 121.032 134.66C120.279 133.697 119.958 132.444 120.069 130.902L122.232 131.058C122.153 132.141 122.378 132.995 122.904 133.621C123.431 134.246 124.216 134.597 125.26 134.672C126.281 134.746 127.102 134.558 127.721 134.11C128.341 133.661 128.682 133.012 128.743 132.163Z" fill="url(#paint22_angular)"/>
<path d="M146.912 29.88C146.777 29.5469 146.546 29.3139 146.218 29.1811C145.894 29.0468 145.418 28.9994 144.789 29.039C143.923 29.1159 143.236 29.0379 142.729 28.8049C142.224 28.5669 141.853 28.1564 141.617 27.5734C141.377 26.9795 141.352 26.4229 141.542 25.9034C141.736 25.3824 142.121 24.9633 142.696 24.6461L142.215 23.4566L143.024 23.1289L143.507 24.3239C144.149 24.1609 144.725 24.2249 145.235 24.5158C145.748 24.8053 146.155 25.3212 146.455 26.0636L145.456 26.4682C145.249 25.9576 144.964 25.6011 144.6 25.3988C144.235 25.1965 143.847 25.1789 143.434 25.346C143.003 25.5204 142.719 25.7661 142.582 26.083C142.443 26.3962 142.455 26.752 142.616 27.1503C142.765 27.5197 143.004 27.7664 143.332 27.8905C143.663 28.0096 144.14 28.0482 144.763 28.0065C145.389 27.9596 145.9 27.9825 146.296 28.0752C146.693 28.1627 147.023 28.3202 147.283 28.5477C147.547 28.7736 147.757 29.0785 147.912 29.4624C148.16 30.0743 148.175 30.6416 147.956 31.1641C147.741 31.6851 147.317 32.1142 146.682 32.4512L147.102 33.4887L146.298 33.8141L145.878 32.7767C145.18 32.9878 144.554 32.9628 144.002 32.7018C143.452 32.4357 143.032 31.9441 142.742 31.2271L143.747 30.8203C143.95 31.3237 144.239 31.6576 144.613 31.8222C144.987 31.9868 145.417 31.9708 145.902 31.7744C146.377 31.5823 146.703 31.3173 146.883 30.9792C147.062 30.6411 147.072 30.2747 146.912 29.88Z" fill="url(#paint23_angular)"/>
<path d="M143.916 68.8386C143.782 68.5055 143.55 68.2725 143.223 68.1397C142.899 68.0054 142.422 67.958 141.794 67.9976C140.927 68.0745 140.24 67.9965 139.733 67.7635C139.228 67.5255 138.858 67.115 138.622 66.532C138.382 65.9381 138.356 65.3815 138.547 64.862C138.74 64.341 139.125 63.9219 139.7 63.6047L139.219 62.4152L140.028 62.0875L140.512 63.2825C141.154 63.1195 141.729 63.1835 142.239 63.4744C142.752 63.7639 143.159 64.2798 143.459 65.0222L142.46 65.4268C142.254 64.9162 141.968 64.5597 141.604 64.3574C141.24 64.1551 140.851 64.1375 140.439 64.3046C140.008 64.479 139.724 64.7247 139.586 65.0416C139.448 65.3548 139.459 65.7106 139.62 66.1089C139.769 66.4783 140.008 66.725 140.337 66.8491C140.667 66.9682 141.144 67.0068 141.768 66.9651C142.393 66.9182 142.904 66.9411 143.3 67.0338C143.698 67.1213 144.027 67.2788 144.287 67.5063C144.552 67.7322 144.761 68.0371 144.917 68.421C145.164 69.0329 145.179 69.6002 144.96 70.1227C144.746 70.6437 144.321 71.0728 143.686 71.4099L144.106 72.4473L143.302 72.7727L142.882 71.7353C142.184 71.9464 141.559 71.9214 141.006 71.6604C140.456 71.3943 140.036 70.9027 139.746 70.1857L140.751 69.7789C140.954 70.2823 141.243 70.6162 141.618 70.7808C141.992 70.9454 142.421 70.9294 142.907 70.733C143.381 70.541 143.708 70.2759 143.887 69.9378C144.066 69.5997 144.076 69.2333 143.916 68.8386Z" fill="url(#paint24_angular)"/>
<path d="M141.919 90.8153C141.784 90.4822 141.553 90.2492 141.226 90.1163C140.902 89.982 140.425 89.9347 139.796 89.9743C138.93 90.0512 138.243 89.9731 137.736 89.7402C137.231 89.5022 136.861 89.0917 136.625 88.5087C136.384 87.9148 136.359 87.3581 136.549 86.8386C136.743 86.3177 137.128 85.8986 137.703 85.5814L137.222 84.3918L138.031 84.0642L138.515 85.2592C139.157 85.0962 139.732 85.1601 140.242 85.4511C140.755 85.7406 141.162 86.2565 141.462 86.9988L140.463 87.4034C140.256 86.8929 139.971 86.5364 139.607 86.3341C139.243 86.1317 138.854 86.1141 138.441 86.2812C138.011 86.4557 137.726 86.7013 137.589 87.0182C137.45 87.3315 137.462 87.6872 137.623 88.0856C137.772 88.4549 138.011 88.7017 138.339 88.8258C138.67 88.9448 139.147 88.9835 139.771 88.9417C140.396 88.8949 140.907 88.9178 141.303 89.0104C141.701 89.098 142.03 89.2555 142.29 89.4829C142.555 89.7089 142.764 90.0138 142.92 90.3976C143.167 91.0096 143.182 91.5768 142.963 92.0993C142.748 92.6204 142.324 93.0494 141.689 93.3865L142.109 94.424L141.305 94.7494L140.885 93.7119C140.187 93.9231 139.561 93.8981 139.009 93.6371C138.459 93.3709 138.039 92.8794 137.749 92.1624L138.754 91.7556C138.957 92.2589 139.246 92.5929 139.62 92.7574C139.995 92.922 140.424 92.9061 140.909 92.7096C141.384 92.5176 141.711 92.2525 141.89 91.9145C142.069 91.5764 142.079 91.21 141.919 90.8153Z" fill="url(#paint25_angular)"/>
<path d="M57.0409 132.771C56.9062 132.438 56.6749 132.205 56.3473 132.072C56.0233 131.937 55.5469 131.89 54.9182 131.93C54.0518 132.007 53.365 131.929 52.8578 131.696C52.3527 131.458 51.9823 131.047 51.7464 130.464C51.5061 129.87 51.4811 129.314 51.6712 128.794C51.865 128.273 52.2496 127.854 52.8249 127.537L52.3437 126.347L53.1529 126.02L53.6363 127.215C54.2783 127.052 54.8541 127.116 55.3637 127.407C55.8769 127.696 56.2837 128.212 56.584 128.954L55.5847 129.359C55.3782 128.848 55.0928 128.492 54.7286 128.289C54.3644 128.087 53.9759 128.07 53.5632 128.237C53.1323 128.411 52.8482 128.657 52.711 128.974C52.5722 129.287 52.5834 129.643 52.7446 130.041C52.894 130.41 53.1329 130.657 53.4612 130.781C53.7917 130.9 54.2688 130.939 54.8924 130.897C55.5181 130.85 56.0288 130.873 56.4245 130.966C56.8223 131.053 57.1515 131.211 57.4121 131.438C57.6763 131.664 57.886 131.969 58.0413 132.353C58.2889 132.965 58.3035 133.532 58.0851 134.055C57.8703 134.576 57.4455 135.005 56.8107 135.342L57.2304 136.379L56.4266 136.705L56.0069 135.667C55.3085 135.878 54.6832 135.854 54.131 135.592C53.5808 135.326 53.1607 134.835 52.8707 134.118L53.8754 133.711C54.0791 134.214 54.368 134.548 54.7422 134.713C55.1164 134.877 55.546 134.861 56.0312 134.665C56.5055 134.473 56.8323 134.208 57.0116 133.87C57.1908 133.532 57.2006 133.165 57.0409 132.771Z" fill="url(#paint26_angular)"/>
<path d="M96.9836 134.769C96.8489 134.435 96.6176 134.202 96.29 134.07C95.966 133.935 95.4896 133.888 94.8609 133.928C93.9945 134.004 93.3077 133.926 92.8005 133.694C92.2954 133.455 91.925 133.045 91.6891 132.462C91.4488 131.868 91.4238 131.311 91.6139 130.792C91.8077 130.271 92.1923 129.852 92.7676 129.535L92.2864 128.345L93.0956 128.017L93.5791 129.212C94.221 129.049 94.7968 129.113 95.3064 129.404C95.8196 129.694 96.2264 130.21 96.5268 130.952L95.5274 131.357C95.3209 130.846 95.0355 130.49 94.6713 130.287C94.3071 130.085 93.9186 130.067 93.5059 130.235C93.075 130.409 92.7909 130.655 92.6537 130.972C92.5149 131.285 92.5261 131.641 92.6873 132.039C92.8367 132.408 93.0756 132.655 93.4039 132.779C93.7344 132.898 94.2115 132.937 94.8351 132.895C95.4608 132.848 95.9715 132.871 96.3672 132.964C96.765 133.051 97.0942 133.209 97.3548 133.436C97.619 133.662 97.8287 133.967 97.984 134.351C98.2316 134.963 98.2462 135.53 98.0278 136.053C97.813 136.574 97.3882 137.003 96.7534 137.34L97.1731 138.377L96.3693 138.703L95.9496 137.665C95.2513 137.876 94.6259 137.851 94.0737 137.59C93.5235 137.324 93.1034 136.833 92.8134 136.116L93.8181 135.709C94.0218 136.212 94.3107 136.546 94.6849 136.711C95.0591 136.875 95.4887 136.859 95.9739 136.663C96.4482 136.471 96.775 136.206 96.9543 135.868C97.1335 135.53 97.1433 135.163 96.9836 134.769Z" fill="url(#paint27_angular)"/>
<path d="M115.956 14.896C115.822 14.5628 115.59 14.3298 115.263 14.197C114.939 14.0627 114.462 14.0153 113.834 14.0549C112.967 14.1318 112.28 14.0538 111.773 13.8209C111.268 13.5828 110.898 13.1723 110.662 12.5893C110.422 11.9955 110.397 11.4388 110.587 10.9193C110.78 10.3984 111.165 9.97927 111.74 9.66203L111.259 8.47249L112.068 8.14485L112.552 9.33982C113.194 9.17682 113.77 9.24081 114.279 9.53176C114.792 9.82126 115.199 10.3372 115.5 11.0795L114.5 11.4841C114.294 10.9735 114.008 10.6171 113.644 10.4147C113.28 10.2124 112.891 10.1948 112.479 10.3619C112.048 10.5364 111.764 10.782 111.626 11.0989C111.488 11.4121 111.499 11.7679 111.66 12.1662C111.809 12.5356 112.048 12.7823 112.377 12.9065C112.707 13.0255 113.184 13.0642 113.808 13.0224C114.434 12.9755 114.944 12.9984 115.34 13.0911C115.738 13.1787 116.067 13.3362 116.328 13.5636C116.592 13.7896 116.802 14.0945 116.957 14.4783C117.204 15.0903 117.219 15.6575 117.001 16.18C116.786 16.701 116.361 17.1301 115.726 17.4672L116.146 18.5046L115.342 18.8301L114.922 17.7926C114.224 18.0037 113.599 17.9788 113.046 17.7177C112.496 17.4516 112.076 16.96 111.786 16.2431L112.791 15.8363C112.995 16.3396 113.283 16.6735 113.658 16.8381C114.032 17.0027 114.462 16.9867 114.947 16.7903C115.421 16.5983 115.748 16.3332 115.927 15.9951C116.106 15.6571 116.116 15.2907 115.956 14.896Z" fill="url(#paint28_angular)"/>
<path d="M126.563 23.7309C126.767 23.0419 126.696 22.3891 126.349 21.7727C126.01 21.1585 125.324 20.4902 124.292 19.7679C122.841 18.8072 121.864 17.8284 121.362 16.8314C120.869 15.8293 120.801 14.7253 121.159 13.5194C121.524 12.2912 122.178 11.3895 123.123 10.8144C124.076 10.2416 125.199 10.0661 126.495 10.2878L127.225 7.82751L128.899 8.32473L128.165 10.7963C129.372 11.3423 130.193 12.1606 130.627 13.2513C131.068 14.3441 131.061 15.6583 130.606 17.1936L128.539 16.5796C128.852 15.5236 128.85 14.6102 128.533 13.8395C128.216 13.0689 127.63 12.5567 126.777 12.3031C125.885 12.0383 125.135 12.0681 124.525 12.3923C123.918 12.709 123.492 13.2792 123.247 14.1031C123.021 14.867 123.086 15.5508 123.445 16.1545C123.814 16.7529 124.511 17.4085 125.538 18.1211C126.575 18.8285 127.345 19.5014 127.849 20.1399C128.361 20.7731 128.68 21.43 128.804 22.1106C128.935 22.7935 128.883 23.5319 128.647 24.3258C128.272 25.5915 127.587 26.4966 126.595 27.0411C125.609 27.5879 124.41 27.7288 122.997 27.464L122.36 29.6097L120.698 29.1159L121.335 26.9701C119.98 26.429 119.033 25.6099 118.495 24.5128C117.966 23.4104 117.922 22.1178 118.362 20.6348L120.441 21.2522C120.132 22.2932 120.167 23.1758 120.547 23.8999C120.927 24.624 121.619 25.1351 122.622 25.4333C123.603 25.7247 124.445 25.7179 125.146 25.4129C125.848 25.1079 126.32 24.5473 126.563 23.7309Z" fill="url(#paint29_angular)"/>
<path d="M139.922 14.896C139.787 14.5628 139.556 14.3298 139.228 14.197C138.904 14.0627 138.428 14.0153 137.799 14.0549C136.933 14.1318 136.246 14.0538 135.739 13.8209C135.234 13.5828 134.863 13.1723 134.628 12.5893C134.387 11.9955 134.362 11.4388 134.552 10.9193C134.746 10.3984 135.131 9.97927 135.706 9.66203L135.225 8.47249L136.034 8.14485L136.517 9.33982C137.159 9.17682 137.735 9.24081 138.245 9.53176C138.758 9.82125 139.165 10.3372 139.465 11.0795L138.466 11.4841C138.259 10.9735 137.974 10.6171 137.61 10.4147C137.246 10.2124 136.857 10.1948 136.444 10.3619C136.013 10.5364 135.729 10.782 135.592 11.0989C135.453 11.4121 135.465 11.7679 135.626 12.1662C135.775 12.5356 136.014 12.7823 136.342 12.9065C136.673 13.0255 137.15 13.0642 137.773 13.0224C138.399 12.9755 138.91 12.9984 139.306 13.0911C139.703 13.1787 140.033 13.3362 140.293 13.5636C140.557 13.7896 140.767 14.0945 140.922 14.4783C141.17 15.0903 141.185 15.6575 140.966 16.18C140.751 16.701 140.327 17.1301 139.692 17.4672L140.112 18.5046L139.308 18.8301L138.888 17.7926C138.19 18.0037 137.564 17.9788 137.012 17.7177C136.462 17.4516 136.042 16.96 135.752 16.2431L136.757 15.8363C136.96 16.3396 137.249 16.6735 137.623 16.8381C137.997 17.0027 138.427 16.9867 138.912 16.7903C139.387 16.5983 139.713 16.3332 139.893 15.9951C140.072 15.6571 140.082 15.2907 139.922 14.896Z" fill="url(#paint30_angular)"/>
<defs>
<radialGradient id="paint0_radial" cx="0" cy="0" r="1" gradientUnits="userSpaceOnUse" gradientTransform="translate(81.9365 75.4264) rotate(90.061) scale(101.513 138.754)">
<stop offset="0.0833333" stop-color="#2AB738" stop-opacity="0"/>
<stop offset="1" stop-color="#2AB738"/>
</radialGradient>
<radialGradient id="paint1_angular" cx="0" cy="0" r="1" gradientUnits="userSpaceOnUse" gradientTransform="translate(81.9365 75.4264) rotate(90.061) scale(101.513 138.754)">
<stop stop-color="white" stop-opacity="0"/>
<stop offset="0.182292" stop-color="white" stop-opacity="0"/>
<stop offset="0.421875" stop-color="white" stop-opacity="0.63"/>
<stop offset="0.670923" stop-color="white" stop-opacity="0"/>
<stop offset="0.854167" stop-color="white" stop-opacity="0"/>
<stop offset="1" stop-color="white" stop-opacity="0"/>
</radialGradient>
<linearGradient id="paint2_linear" x1="54.482" y1="22.6057" x2="97.626" y2="129.279" gradientUnits="userSpaceOnUse">
<stop stop-color="white" stop-opacity="0"/>
<stop offset="1" stop-color="white"/>
</linearGradient>
<linearGradient id="paint3_linear" x1="54.482" y1="22.6057" x2="97.626" y2="129.279" gradientUnits="userSpaceOnUse">
<stop/>
<stop offset="0.427083" stop-opacity="0.04"/>
<stop offset="0.619792" stop-opacity="0"/>
<stop offset="1" stop-opacity="0"/>
</linearGradient>
<radialGradient id="paint4_angular" cx="0" cy="0" r="1" gradientUnits="userSpaceOnUse" gradientTransform="translate(56.0355 36.1623) rotate(67.9729) scale(23.6905 11.8421)">
<stop stop-color="#008615"/>
<stop offset="1" stop-color="#008615" stop-opacity="0.46"/>
</radialGradient>
<radialGradient id="paint5_angular" cx="0" cy="0" r="1" gradientUnits="userSpaceOnUse" gradientTransform="translate(52.2625 113.87) rotate(93.2627) scale(23.6917 11.8415)">
<stop stop-color="#008615"/>
<stop offset="1" stop-color="#008615" stop-opacity="0.46"/>
</radialGradient>
<radialGradient id="paint6_angular" cx="0" cy="0" r="1" gradientUnits="userSpaceOnUse" gradientTransform="translate(122.768 83.3219) rotate(43.6018) scale(23.6871 11.8438)">
<stop stop-color="#008615"/>
<stop offset="1" stop-color="#008615" stop-opacity="0.46"/>
</radialGradient>
<radialGradient id="paint7_angular" cx="0" cy="0" r="1" gradientUnits="userSpaceOnUse" gradientTransform="translate(15.0099 41.7585) rotate(67.9729) scale(6.9922 3.49517)">
<stop stop-color="#FAFF00"/>
<stop offset="1" stop-color="#FAFF00" stop-opacity="0.46"/>
</radialGradient>
<radialGradient id="paint8_angular" cx="0" cy="0" r="1" gradientUnits="userSpaceOnUse" gradientTransform="translate(14.8806 25.5775) rotate(67.9729) scale(13.9844 6.99034)">
<stop stop-color="#FAFF00"/>
<stop offset="1" stop-color="#FAFF00" stop-opacity="0.46"/>
</radialGradient>
<radialGradient id="paint9_angular" cx="0" cy="0" r="1" gradientUnits="userSpaceOnUse" gradientTransform="translate(28.158 21.2743) rotate(67.9729) scale(10.4883 5.49241)">
<stop stop-color="#FAFF00"/>
<stop offset="1" stop-color="#FAFF00" stop-opacity="0.46"/>
</radialGradient>
<radialGradient id="paint10_angular" cx="0" cy="0" r="1" gradientUnits="userSpaceOnUse" gradientTransform="translate(17.1109 60.59) rotate(67.9729) scale(6.9922 5.76183)">
<stop stop-color="#FAFF00"/>
<stop offset="1" stop-color="#FAFF00" stop-opacity="0.46"/>
</radialGradient>
<radialGradient id="paint11_angular" cx="0" cy="0" r="1" gradientUnits="userSpaceOnUse" gradientTransform="translate(16.1123 83.5656) rotate(67.9729) scale(6.9922 5.76183)">
<stop stop-color="#FAFF00"/>
<stop offset="1" stop-color="#FAFF00" stop-opacity="0.46"/>
</radialGradient>
<radialGradient id="paint12_angular" cx="0" cy="0" r="1" gradientUnits="userSpaceOnUse" gradientTransform="translate(15.1137 98.5497) rotate(67.9729) scale(6.9922 5.76183)">
<stop stop-color="#FAFF00"/>
<stop offset="1" stop-color="#FAFF00" stop-opacity="0.46"/>
</radialGradient>
<radialGradient id="paint13_angular" cx="0" cy="0" r="1" gradientUnits="userSpaceOnUse" gradientTransform="translate(43.0736 122.524) rotate(67.9729) scale(6.9922 5.76183)">
<stop stop-color="#FAFF00"/>
<stop offset="1" stop-color="#FAFF00" stop-opacity="0.46"/>
</radialGradient>
<radialGradient id="paint14_angular" cx="0" cy="0" r="1" gradientUnits="userSpaceOnUse" gradientTransform="translate(26.5245 118.132) rotate(88.7485) scale(20.9777 11.9285)">
<stop stop-color="#FAFF00"/>
<stop offset="1" stop-color="#FAFF00" stop-opacity="0.46"/>
</radialGradient>
<radialGradient id="paint15_angular" cx="0" cy="0" r="1" gradientUnits="userSpaceOnUse" gradientTransform="translate(131.946 35.6166) rotate(67.9729) scale(6.9922 5.76183)">
<stop stop-color="#FAFF00"/>
<stop offset="1" stop-color="#FAFF00" stop-opacity="0.46"/>
</radialGradient>
<radialGradient id="paint16_angular" cx="0" cy="0" r="1" gradientUnits="userSpaceOnUse" gradientTransform="translate(139.935 46.6049) rotate(67.9729) scale(6.9922 5.76183)">
<stop stop-color="#FAFF00"/>
<stop offset="1" stop-color="#FAFF00" stop-opacity="0.46"/>
</radialGradient>
<radialGradient id="paint17_angular" cx="0" cy="0" r="1" gradientUnits="userSpaceOnUse" gradientTransform="translate(11.0156 125.669) rotate(67.9729) scale(6.9922 3.49517)">
<stop stop-color="#FAFF00"/>
<stop offset="1" stop-color="#FAFF00" stop-opacity="0.46"/>
</radialGradient>
<radialGradient id="paint18_angular" cx="0" cy="0" r="1" gradientUnits="userSpaceOnUse" gradientTransform="translate(20.0027 138.656) rotate(67.9729) scale(6.9922 3.49517)">
<stop stop-color="#FAFF00"/>
<stop offset="1" stop-color="#FAFF00" stop-opacity="0.46"/>
</radialGradient>
<radialGradient id="paint19_angular" cx="0" cy="0" r="1" gradientUnits="userSpaceOnUse" gradientTransform="translate(106.878 131.663) rotate(67.9729) scale(6.9922 3.49517)">
<stop stop-color="#FAFF00"/>
<stop offset="1" stop-color="#FAFF00" stop-opacity="0.46"/>
</radialGradient>
<radialGradient id="paint20_angular" cx="0" cy="0" r="1" gradientUnits="userSpaceOnUse" gradientTransform="translate(134.838 112.683) rotate(67.9729) scale(6.9922 3.49517)">
<stop stop-color="#FAFF00"/>
<stop offset="1" stop-color="#FAFF00" stop-opacity="0.46"/>
</radialGradient>
<radialGradient id="paint21_angular" cx="0" cy="0" r="1" gradientUnits="userSpaceOnUse" gradientTransform="translate(139.671 138.656) rotate(67.9729) scale(6.9922 3.49517)">
<stop stop-color="#FAFF00"/>
<stop offset="1" stop-color="#FAFF00" stop-opacity="0.46"/>
</radialGradient>
<radialGradient id="paint22_angular" cx="0" cy="0" r="1" gradientUnits="userSpaceOnUse" gradientTransform="translate(125.97 128.333) rotate(94.1293) scale(13.9852 6.98999)">
<stop stop-color="#FAFF00"/>
<stop offset="1" stop-color="#FAFF00" stop-opacity="0.46"/>
</radialGradient>
<radialGradient id="paint23_angular" cx="0" cy="0" r="1" gradientUnits="userSpaceOnUse" gradientTransform="translate(144.824 28.7723) rotate(67.9729) scale(6.9922 3.49517)">
<stop stop-color="#FAFF00"/>
<stop offset="1" stop-color="#FAFF00" stop-opacity="0.46"/>
</radialGradient>
<radialGradient id="paint24_angular" cx="0" cy="0" r="1" gradientUnits="userSpaceOnUse" gradientTransform="translate(141.828 67.7309) rotate(67.9729) scale(6.9922 3.49517)">
<stop stop-color="#FAFF00"/>
<stop offset="1" stop-color="#FAFF00" stop-opacity="0.46"/>
</radialGradient>
<radialGradient id="paint25_angular" cx="0" cy="0" r="1" gradientUnits="userSpaceOnUse" gradientTransform="translate(139.831 89.7075) rotate(67.9729) scale(6.9922 3.49517)">
<stop stop-color="#FAFF00"/>
<stop offset="1" stop-color="#FAFF00" stop-opacity="0.46"/>
</radialGradient>
<radialGradient id="paint26_angular" cx="0" cy="0" r="1" gradientUnits="userSpaceOnUse" gradientTransform="translate(54.9526 131.663) rotate(67.9729) scale(6.9922 3.49517)">
<stop stop-color="#FAFF00"/>
<stop offset="1" stop-color="#FAFF00" stop-opacity="0.46"/>
</radialGradient>
<radialGradient id="paint27_angular" cx="0" cy="0" r="1" gradientUnits="userSpaceOnUse" gradientTransform="translate(94.8953 133.661) rotate(67.9729) scale(6.9922 3.49517)">
<stop stop-color="#FAFF00"/>
<stop offset="1" stop-color="#FAFF00" stop-opacity="0.46"/>
</radialGradient>
<radialGradient id="paint28_angular" cx="0" cy="0" r="1" gradientUnits="userSpaceOnUse" gradientTransform="translate(113.868 13.7882) rotate(67.9729) scale(6.9922 3.49517)">
<stop stop-color="#FAFF00"/>
<stop offset="1" stop-color="#FAFF00" stop-opacity="0.46"/>
</radialGradient>
<radialGradient id="paint29_angular" cx="0" cy="0" r="1" gradientUnits="userSpaceOnUse" gradientTransform="translate(124.678 19.3939) rotate(106.533) scale(13.9847 6.99018)">
<stop stop-color="#FAFF00"/>
<stop offset="1" stop-color="#FAFF00" stop-opacity="0.46"/>
</radialGradient>
<radialGradient id="paint30_angular" cx="0" cy="0" r="1" gradientUnits="userSpaceOnUse" gradientTransform="translate(137.834 13.7882) rotate(67.9729) scale(6.9922 3.49517)">
<stop stop-color="#FAFF00"/>
<stop offset="1" stop-color="#FAFF00" stop-opacity="0.46"/>
</radialGradient>
</defs>
</svg>
